<svg width="1584" height="396" viewBox="0 0 1584 396" fill="none" xmlns="http://www.w3.org/2000/svg">
<rect width="1584" height="396" fill="#F5F5F5"/>
<g id="Awesome banner" clip-path="url(#clip0_0_1)">
<rect width="1584" height="396" fill="url(#paint0_linear_0_1)"/>
<ellipse id="Ellipse 2" cx="323" cy="64" rx="285" ry="288" fill="url(#paint1_linear_0_1)" fill-opacity="0.1"/>
<g id="copyright">
<path d="M75.95 334.52L72.30 334.52L72.30 311.16L77.20 311.16L83.70 330.04Q83.60 329.02 83.50 327.62Q83.41 326.23 83.33 324.79Q83.25 323.35 83.25 322.23L83.25 311.16L86.90 311.16L86.90 334.52L82 334.52L75.57 315.64Q75.63 316.57 75.73 317.88Q75.82 319.19 75.89 320.57Q75.95 321.94 75.95 323.10L75.95 334.52M98.80 334.84Q96.46 334.84 94.67 333.96Q92.88 333.08 91.89 331.53Q90.90 329.98 90.90 327.93Q90.90 325.78 92.13 324.18Q93.36 322.58 95.34 322.17L95.34 322.10Q93.65 321.75 92.61 320.38Q91.57 319 91.57 317.11Q91.57 315.26 92.48 313.85Q93.39 312.44 95.02 311.64Q96.66 310.84 98.80 310.84Q100.94 310.84 102.59 311.64Q104.24 312.44 105.15 313.85Q106.06 315.26 106.06 317.11Q106.06 319 105.01 320.38Q103.95 321.75 102.26 322.10L102.26 322.17Q104.24 322.58 105.47 324.18Q106.70 325.78 106.70 327.93Q106.70 329.98 105.71 331.53Q104.72 333.08 102.93 333.96Q101.14 334.84 98.80 334.84M98.80 320.73Q100.30 320.73 101.23 319.82Q102.16 318.90 102.16 317.46Q102.16 315.99 101.23 315.08Q100.30 314.17 98.80 314.17Q97.30 314.17 96.37 315.08Q95.44 315.99 95.44 317.46Q95.44 318.90 96.37 319.82Q97.30 320.73 98.80 320.73M98.80 331.45Q100.56 331.45 101.68 330.42Q102.80 329.40 102.80 327.74Q102.80 326.04 101.68 325Q100.56 323.96 98.80 323.96Q97.04 323.96 95.92 325Q94.80 326.04 94.80 327.74Q94.80 329.40 95.92 330.42Q97.04 331.45 98.80 331.45M114.35 334.52L110.70 334.52L110.70 311.16L115.60 311.16L122.10 330.04Q122 329.02 121.90 327.62Q121.81 326.23 121.73 324.79Q121.65 323.35 121.65 322.23L121.65 311.16L125.30 311.16L125.30 334.52L120.40 334.52L113.97 315.64Q114.03 316.57 114.13 317.88Q114.22 319.19 114.29 320.57Q114.35 321.94 114.35 323.10" fill="white" fill-opacity="0.9"/>
<path d="M161.48 325.24L151.24 325.24L151.24 322.68L161.48 322.68" fill="white" fill-opacity="0.9"/>
<path d="M195.02 334.84Q191.82 334.84 189.96 333.05Q188.11 331.26 188.11 328.12L188.11 317.56Q188.11 314.42 189.96 312.63Q191.82 310.84 195.02 310.84Q198.15 310.84 200.01 312.65Q201.87 314.46 201.87 317.56L198.99 317.56Q198.99 315.58 197.95 314.50Q196.91 313.43 195.02 313.43Q193.13 313.43 192.06 314.50Q190.99 315.58 190.99 317.56L190.99 328.12Q190.99 330.10 192.06 331.18Q193.13 332.25 195.02 332.25Q196.91 332.25 197.95 331.18Q198.99 330.10 198.99 328.12L201.87 328.12Q201.87 331.22 200.01 333.03Q198.15 334.84 195.02 334.84" fill="white" fill-opacity="0.9"/>
<path d="M213.96 334.84Q210.83 334.84 209 333.02Q207.18 331.19 207.18 327.80L207.18 317.88Q207.18 314.49 209 312.66Q210.83 310.84 213.96 310.84Q217.10 310.84 218.92 312.66Q220.75 314.49 220.75 317.85L220.75 327.80Q220.75 331.19 218.92 333.02Q217.10 334.84 213.96 334.84M213.96 332.25Q215.85 332.25 216.86 331.18Q217.87 330.10 217.87 328.12L217.87 317.56Q217.87 315.58 216.86 314.50Q215.85 313.43 213.96 313.43Q212.11 313.43 211.08 314.50Q210.06 315.58 210.06 317.56L210.06 328.12Q210.06 330.10 211.08 331.18Q212.11 332.25 213.96 332.25" fill="white" fill-opacity="0.9"/>
<path d="M228.65 334.52L225.87 334.52L225.87 311.16L230.12 311.16L233.10 321.27L236.20 311.16L240.46 311.16L240.46 334.52L237.67 334.52L237.67 323.48Q237.67 321.91 237.72 319.88Q237.77 317.85 237.87 315.77Q237.96 313.69 238.09 312.02L234.31 324.09L231.82 324.09L228.20 312.31Q228.46 314.68 228.55 317.50Q228.65 320.31 228.65 323.48" fill="white" fill-opacity="0.9"/>
<path d="M247.85 334.52L245.07 334.52L245.07 311.16L249.32 311.16L252.30 321.27L255.40 311.16L259.66 311.16L259.66 334.52L256.87 334.52L256.87 323.48Q256.87 321.91 256.92 319.88Q256.97 317.85 257.07 315.77Q257.16 313.69 257.29 312.02L253.51 324.09L251.02 324.09L247.40 312.31Q247.66 314.68 247.75 317.50Q247.85 320.31 247.85 323.48" fill="white" fill-opacity="0.9"/>
<path d="M271.56 334.84Q268.30 334.84 266.57 333.03Q264.84 331.22 264.84 328.12L264.84 311.16L267.72 311.16L267.72 328.12Q267.72 330.04 268.67 331.16Q269.61 332.28 271.56 332.28Q273.48 332.28 274.44 331.16Q275.40 330.04 275.40 328.12L275.40 311.16L278.28 311.16L278.28 328.12Q278.28 331.26 276.57 333.05Q274.86 334.84 271.56 334.84" fill="white" fill-opacity="0.9"/>
<path d="M286.83 334.52L284.04 334.52L284.04 311.16L287.88 311.16L295.02 331.16Q294.95 330.36 294.87 329.19Q294.79 328.02 294.75 326.73Q294.70 325.43 294.70 324.28L294.70 311.16L297.48 311.16L297.48 334.52L293.64 334.52L286.54 314.52Q286.60 315.29 286.67 316.46Q286.73 317.62 286.78 318.92Q286.83 320.22 286.83 321.40" fill="white" fill-opacity="0.9"/>
<path d="M316.20 334.52L303.72 334.52L303.72 331.90L308.49 331.90L308.49 313.78L303.72 313.78L303.72 311.16L316.20 311.16L316.20 313.78L311.43 313.78L311.43 331.90L316.20 331.90" fill="white" fill-opacity="0.9"/>
<path d="M330.60 334.52L327.72 334.52L327.72 313.78L321.32 313.78L321.32 311.16L337 311.16L337 313.78L330.60 313.78" fill="white" fill-opacity="0.9"/>
<path d="M349.80 334.52L346.92 334.52L346.92 325.78L339.88 311.16L342.95 311.16L347.50 320.76Q347.88 321.56 348.11 322.12Q348.33 322.68 348.39 322.94Q348.46 322.68 348.70 322.12Q348.94 321.56 349.32 320.76L353.87 311.16L356.84 311.16L349.80 325.78" fill="white" fill-opacity="0.9"/>
<path d="M382.83 334.52L380.04 334.52L380.04 311.16L383.88 311.16L391.02 331.16Q390.95 330.36 390.87 329.19Q390.79 328.02 390.75 326.73Q390.70 325.43 390.70 324.28L390.70 311.16L393.48 311.16L393.48 334.52L389.64 334.52L382.54 314.52Q382.60 315.29 382.67 316.46Q382.73 317.62 382.78 318.92Q382.83 320.22 382.83 321.40" fill="white" fill-opacity="0.9"/>
<path d="M405.96 334.84Q402.83 334.84 401 333.02Q399.18 331.19 399.18 327.80L399.18 317.88Q399.18 314.49 401 312.66Q402.83 310.84 405.96 310.84Q409.10 310.84 410.92 312.66Q412.75 314.49 412.75 317.85L412.75 327.80Q412.75 331.19 410.92 333.02Q409.10 334.84 405.96 334.84M405.96 332.25Q407.85 332.25 408.86 331.18Q409.87 330.10 409.87 328.12L409.87 317.56Q409.87 315.58 408.86 314.50Q407.85 313.43 405.96 313.43Q404.11 313.43 403.08 314.50Q402.06 315.58 402.06 317.56L402.06 328.12Q402.06 330.10 403.08 331.18Q404.11 332.25 405.96 332.25" fill="white" fill-opacity="0.9"/>
<path d="M424.55 334.52L418.51 334.52L418.51 311.16L424.55 311.16Q426.83 311.16 428.47 312.02Q430.12 312.89 431.03 314.46Q431.95 316.02 431.95 318.17L431.95 327.48Q431.95 329.62 431.03 331.21Q430.12 332.79 428.47 333.66Q426.83 334.52 424.55 334.52M421.39 313.72L421.39 331.96L424.55 331.96Q426.67 331.96 427.87 330.78Q429.07 329.59 429.07 327.48L429.07 318.17Q429.07 316.09 427.87 314.90Q426.67 313.72 424.55 313.72" fill="white" fill-opacity="0.9"/>
<path d="M451.40 334.52L437.96 334.52L437.96 311.16L451.40 311.16L451.40 313.78L440.81 313.78L440.81 321.02L450.28 321.02L450.28 323.58L440.81 323.58L440.81 331.90L451.40 331.90" fill="white" fill-opacity="0.9"/>
<path d="M463.69 334.84Q460.30 334.84 458.28 333.05Q456.27 331.26 456.27 328.12L459.15 328.12Q459.15 330.07 460.39 331.18Q461.64 332.28 463.69 332.28Q465.67 332.28 466.86 331.13Q468.04 329.98 468.04 328.12Q468.04 326.71 467.29 325.67Q466.54 324.63 465.13 324.25L461.58 323.26Q459.37 322.62 458.11 320.97Q456.84 319.32 456.84 317.08Q456.84 315.22 457.67 313.82Q458.51 312.41 460.01 311.62Q461.51 310.84 463.47 310.84Q465.45 310.84 466.97 311.62Q468.49 312.41 469.35 313.80Q470.22 315.19 470.22 317.02L467.34 317.02Q467.34 315.42 466.25 314.41Q465.16 313.40 463.47 313.40Q461.77 313.40 460.71 314.41Q459.66 315.42 459.66 317.02Q459.66 318.30 460.35 319.21Q461.03 320.12 462.28 320.47L465.93 321.50Q468.27 322.14 469.56 323.91Q470.86 325.69 470.86 328.12Q470.86 331.19 468.91 333.02Q466.95 334.84 463.69 334.84" fill="white" fill-opacity="0.9"/>
</g>
<path d="M75.28 197.64L72.57 197.64L70.48 180.12L72.47 180.12L73.84 193.08Q73.94 193.87 73.98 194.72Q74.03 195.58 74.06 196.08Q74.10 195.58 74.19 194.72Q74.27 193.87 74.37 193.08L76.10 180.12L78.42 180.12L80.01 193.08Q80.10 193.87 80.20 194.72Q80.30 195.58 80.34 196.08Q80.39 195.58 80.45 194.72Q80.51 193.87 80.61 193.08L82.02 180.12L83.92 180.12L81.78 197.64L79.07 197.64L77.49 184.44Q77.39 183.62 77.34 182.84Q77.30 182.06 77.25 181.63Q77.20 182.06 77.15 182.84Q77.10 183.62 76.98 184.44" fill="white" fill-opacity="0.7"/>
<path d="M91.60 197.88Q89.27 197.88 87.84 196.48Q86.42 195.07 86.42 192.60L86.42 189.48Q86.42 187.01 87.84 185.60Q89.27 184.20 91.60 184.20Q93.16 184.20 94.32 184.82Q95.49 185.45 96.14 186.58Q96.78 187.70 96.78 189.24L96.78 191.59L88.53 191.59L88.53 192.84Q88.53 194.30 89.37 195.16Q90.21 196.01 91.60 196.01Q92.80 196.01 93.58 195.54Q94.36 195.07 94.53 194.28L96.69 194.28Q96.47 195.94 95.08 196.91Q93.69 197.88 91.60 197.88M88.53 189.24L88.53 189.91L94.67 189.91L94.67 189.24Q94.67 187.68 93.87 186.83Q93.06 185.98 91.60 185.98Q90.14 185.98 89.33 186.83Q88.53 187.68 88.53 189.24" fill="white" fill-opacity="0.7"/>
<path d="MNaN 197.64L107.92 197.64Q106.17 197.64 105.12 196.62Q104.08 195.60 104.08 193.92L104.08 182.09L99.52 182.09L99.52 180.12L106.24 180.12L106.24 193.92Q106.24 194.74 106.70 195.20Q107.15 195.67 107.92 195.67LNaN 195.67" fill="white" fill-opacity="0.7"/>
<path d="M120.59 197.88Q118.19 197.88 116.75 196.54Q115.31 195.19 115.31 192.84L115.31 189.24Q115.31 186.89 116.75 185.54Q118.19 184.20 120.59 184.20Q122.87 184.20 124.28 185.42Q125.68 186.65 125.75 188.76L123.59 188.76Q123.52 187.49 122.73 186.80Q121.94 186.12 120.59 186.12Q119.18 186.12 118.32 186.92Q117.47 187.73 117.47 189.22L117.47 192.84Q117.47 194.33 118.32 195.14Q119.18 195.96 120.59 195.96Q121.94 195.96 122.73 195.26Q123.52 194.57 123.59 193.32L125.75 193.32Q125.68 195.43 124.28 196.66Q122.87 197.88 120.59 197.88" fill="white" fill-opacity="0.7"/>
<path d="M134.80 197.83Q132.42 197.83 131.02 196.44Q129.62 195.05 129.62 192.55L129.62 189.53Q129.62 187.01 131.01 185.63Q132.40 184.25 134.80 184.25Q137.20 184.25 138.59 185.63Q139.98 187.01 139.98 189.53L139.98 192.55Q139.98 195.05 138.58 196.44Q137.18 197.83 134.80 197.83M134.80 195.91Q136.22 195.91 137.02 195.12Q137.82 194.33 137.82 192.79L137.82 189.29Q137.82 187.75 137.02 186.96Q136.22 186.17 134.80 186.17Q133.41 186.17 132.59 186.96Q131.78 187.75 131.78 189.29L131.78 192.79Q131.78 194.33 132.59 195.12Q133.41 195.91 134.80 195.91" fill="white" fill-opacity="0.7"/>
<path d="M145.46 197.64L143.44 197.64L143.44 184.44L145.31 184.44L145.31 186.19L145.36 186.19Q145.48 185.30 146.07 184.75Q146.66 184.20 147.57 184.20Q148.43 184.20 149.03 184.70Q149.63 185.21 149.90 186.07L149.92 186.07Q150.09 185.21 150.68 184.70Q151.26 184.20 152.18 184.20Q153.45 184.20 154.20 185.15Q154.96 186.10 154.96 187.61L154.96 197.64L152.94 197.64L152.94 187.58Q152.94 186.79 152.56 186.32Q152.18 185.86 151.50 185.86Q150.86 185.86 150.47 186.31Q150.09 186.77 150.09 187.56L150.09 197.64L148.31 197.64L148.31 187.58Q148.31 186.79 147.93 186.32Q147.54 185.86 146.90 185.86Q146.22 185.86 145.84 186.31Q145.46 186.77 145.46 187.56" fill="white" fill-opacity="0.7"/>
<path d="M163.60 197.88Q161.27 197.88 159.84 196.48Q158.42 195.07 158.42 192.60L158.42 189.48Q158.42 187.01 159.84 185.60Q161.27 184.20 163.60 184.20Q165.16 184.20 166.32 184.82Q167.49 185.45 168.14 186.58Q168.78 187.70 168.78 189.24L168.78 191.59L160.53 191.59L160.53 192.84Q160.53 194.30 161.37 195.16Q162.21 196.01 163.60 196.01Q164.80 196.01 165.58 195.54Q166.36 195.07 166.53 194.28L168.69 194.28Q168.47 195.94 167.08 196.91Q165.69 197.88 163.60 197.88M160.53 189.24L160.53 189.91L166.67 189.91L166.67 189.24Q166.67 187.68 165.87 186.83Q165.06 185.98 163.60 185.98Q162.14 185.98 161.33 186.83Q160.53 187.68 160.53 189.24" fill="white" fill-opacity="0.7"/>
<path d="M197.56 197.64L193.72 197.64Q192.09 197.64 191.10 196.69Q190.12 195.74 190.12 194.16L190.12 186.41L186.33 186.41L186.33 184.44L190.12 184.44L190.12 180.72L192.28 180.72L192.28 184.44L197.68 184.44L197.68 186.41L192.28 186.41L192.28 194.16Q192.28 194.83 192.68 195.25Q193.07 195.67 193.72 195.67L197.56 195.67" fill="white" fill-opacity="0.7"/>
<path d="M206.80 197.83Q204.42 197.83 203.02 196.44Q201.62 195.05 201.62 192.55L201.62 189.53Q201.62 187.01 203.01 185.63Q204.40 184.25 206.80 184.25Q209.20 184.25 210.59 185.63Q211.98 187.01 211.98 189.53L211.98 192.55Q211.98 195.05 210.58 196.44Q209.18 197.83 206.80 197.83M206.80 195.91Q208.22 195.91 209.02 195.12Q209.82 194.33 209.82 192.79L209.82 189.29Q209.82 187.75 209.02 186.96Q208.22 186.17 206.80 186.17Q205.41 186.17 204.59 186.96Q203.78 187.75 203.78 189.29L203.78 192.79Q203.78 194.33 204.59 195.12Q205.41 195.91 206.80 195.91" fill="white" fill-opacity="0.7"/>
<path d="M240.76 197.64L236.92 197.64Q235.29 197.64 234.30 196.69Q233.32 195.74 233.32 194.16L233.32 186.41L229.53 186.41L229.53 184.44L233.32 184.44L233.32 180.72L235.48 180.72L235.48 184.44L240.88 184.44L240.88 186.41L235.48 186.41L235.48 194.16Q235.48 194.83 235.88 195.25Q236.27 195.67 236.92 195.67L240.76 195.67" fill="white" fill-opacity="0.7"/>
<path d="M247.17 197.64L245.01 197.64L245.01 180.12L247.17 180.12L247.17 186.96L247.19 186.96Q247.36 185.64 248.27 184.92Q249.18 184.20 250.70 184.20Q252.69 184.20 253.86 185.42Q255.04 186.65 255.04 188.76L255.04 197.64L252.88 197.64L252.88 189.12Q252.88 187.63 252.12 186.83Q251.37 186.02 250.07 186.02Q248.73 186.02 247.95 186.86Q247.17 187.70 247.17 189.24" fill="white" fill-opacity="0.7"/>
<path d="M264.40 197.88Q262.07 197.88 260.64 196.48Q259.22 195.07 259.22 192.60L259.22 189.48Q259.22 187.01 260.64 185.60Q262.07 184.20 264.40 184.20Q265.96 184.20 267.12 184.82Q268.29 185.45 268.94 186.58Q269.58 187.70 269.58 189.24L269.58 191.59L261.33 191.59L261.33 192.84Q261.33 194.30 262.17 195.16Q263.01 196.01 264.40 196.01Q265.60 196.01 266.38 195.54Q267.16 195.07 267.33 194.28L269.49 194.28Q269.27 195.94 267.88 196.91Q266.49 197.88 264.40 197.88M261.33 189.24L261.33 189.91L267.47 189.91L267.47 189.24Q267.47 187.68 266.67 186.83Q265.86 185.98 264.40 185.98Q262.94 185.98 262.13 186.83Q261.33 187.68 261.33 189.24" fill="white" fill-opacity="0.7"/>
<path d="M289.41 197.64L287.20 197.64L291.76 180.12L294.66 180.12L299.20 197.64L297.02 197.64L295.86 192.98L290.56 192.98L289.41 197.64M292.34 185.74L290.99 191.16L295.41 191.16L294.06 185.76Q293.68 184.22 293.46 183.19Q293.25 182.16 293.20 181.85Q293.15 182.16 292.94 183.19Q292.72 184.22 292.34 185.74" fill="white" fill-opacity="0.7"/>
<path d="M304.77 197.64L302.61 197.64L302.61 180.12L308.25 180.12Q310.70 180.12 312.15 181.52Q313.60 182.93 313.60 185.28Q313.60 187.63 312.15 189.04Q310.70 190.44 308.25 190.44L304.77 190.44L304.77 197.64M304.77 182.06L304.77 188.50L308.25 188.50Q309.66 188.50 310.52 187.62Q311.37 186.74 311.37 185.28Q311.37 183.79 310.52 182.93Q309.66 182.06 308.25 182.06" fill="white" fill-opacity="0.7"/>
<path d="M326.68 197.64L317.32 197.64L317.32 195.67L320.90 195.67L320.90 182.09L317.32 182.09L317.32 180.12L326.68 180.12L326.68 182.09L323.10 182.09L323.10 195.67L326.68 195.67" fill="white" fill-opacity="0.7"/>
<path d="M347.97 197.64L345.83 197.64L345.83 180.12L351.23 180.12Q352.79 180.12 353.97 180.76Q355.14 181.39 355.79 182.52Q356.44 183.65 356.44 185.16Q356.44 186.94 355.53 188.21Q354.62 189.48 353.10 189.98L356.68 197.64L354.30 197.64L350.87 190.20L347.97 190.20L347.97 197.64M347.97 182.06L347.97 188.26L351.23 188.26Q352.58 188.26 353.39 187.40Q354.21 186.55 354.21 185.16Q354.21 183.74 353.39 182.90Q352.58 182.06 351.23 182.06" fill="white" fill-opacity="0.7"/>
<path d="M365.20 197.88Q362.87 197.88 361.44 196.48Q360.02 195.07 360.02 192.60L360.02 189.48Q360.02 187.01 361.44 185.60Q362.87 184.20 365.20 184.20Q366.76 184.20 367.92 184.82Q369.09 185.45 369.74 186.58Q370.38 187.70 370.38 189.24L370.38 191.59L362.13 191.59L362.13 192.84Q362.13 194.30 362.97 195.16Q363.81 196.01 365.20 196.01Q366.40 196.01 367.18 195.54Q367.96 195.07 368.13 194.28L370.29 194.28Q370.07 195.94 368.68 196.91Q367.29 197.88 365.20 197.88M362.13 189.24L362.13 189.91L368.27 189.91L368.27 189.24Q368.27 187.68 367.47 186.83Q366.66 185.98 365.20 185.98Q363.74 185.98 362.93 186.83Q362.13 187.68 362.13 189.24" fill="white" fill-opacity="0.7"/>
<path d="M379.72 197.64L377.56 197.64L377.56 188.21L373.72 188.21L373.72 186.24L377.56 186.24L377.56 183.48Q377.56 181.92 378.54 181.02Q379.53 180.12 381.26 180.12L385.12 180.12L385.12 182.09L381.26 182.09Q379.72 182.09 379.72 183.48L379.72 186.24L385.12 186.24L385.12 188.21L379.72 188.21" fill="white" fill-opacity="0.7"/>
<path d="M394 197.88Q391.67 197.88 390.24 196.48Q388.82 195.07 388.82 192.60L388.82 189.48Q388.82 187.01 390.24 185.60Q391.67 184.20 394 184.20Q395.56 184.20 396.72 184.82Q397.89 185.45 398.54 186.58Q399.18 187.70 399.18 189.24L399.18 191.59L390.93 191.59L390.93 192.84Q390.93 194.30 391.77 195.16Q392.61 196.01 394 196.01Q395.20 196.01 395.98 195.54Q396.76 195.07 396.93 194.28L399.09 194.28Q398.87 195.94 397.48 196.91Q396.09 197.88 394 197.88M390.93 189.24L390.93 189.91L397.07 189.91L397.07 189.24Q397.07 187.68 396.27 186.83Q395.46 185.98 394 185.98Q392.54 185.98 391.73 186.83Q390.93 187.68 390.93 189.24" fill="white" fill-opacity="0.7"/>
<path d="M406.05 197.64L403.89 197.64L403.89 184.44L406.05 184.44L406.05 186.96L406.10 186.96Q406.26 185.69 407.18 184.94Q408.09 184.20 409.62 184.20Q411.69 184.20 412.80 185.44Q413.92 186.67 413.92 188.95L413.92 190.08L411.76 190.08L411.76 188.95Q411.76 186.07 408.95 186.07Q407.54 186.07 406.79 186.89Q406.05 187.70 406.05 189.24" fill="white" fill-opacity="0.7"/>
<path d="M422.80 197.88Q420.47 197.88 419.04 196.48Q417.62 195.07 417.62 192.60L417.62 189.48Q417.62 187.01 419.04 185.60Q420.47 184.20 422.80 184.20Q424.36 184.20 425.52 184.82Q426.69 185.45 427.34 186.58Q427.98 187.70 427.98 189.24L427.98 191.59L419.73 191.59L419.73 192.84Q419.73 194.30 420.57 195.16Q421.41 196.01 422.80 196.01Q424 196.01 424.78 195.54Q425.56 195.07 425.73 194.28L427.89 194.28Q427.67 195.94 426.28 196.91Q424.89 197.88 422.80 197.88M419.73 189.24L419.73 189.91L425.87 189.91L425.87 189.24Q425.87 187.68 425.07 186.83Q424.26 185.98 422.80 185.98Q421.34 185.98 420.53 186.83Q419.73 187.68 419.73 189.24" fill="white" fill-opacity="0.7"/>
<path d="M434.37 197.64L432.21 197.64L432.21 184.44L434.37 184.44L434.37 186.96L434.39 186.96Q434.56 185.64 435.47 184.92Q436.38 184.20 437.90 184.20Q439.89 184.20 441.06 185.42Q442.24 186.65 442.24 188.76L442.24 197.64L440.08 197.64L440.08 189.14Q440.08 187.63 439.32 186.83Q438.57 186.02 437.27 186.02Q435.93 186.02 435.15 186.86Q434.37 187.70 434.37 189.24" fill="white" fill-opacity="0.7"/>
<path d="M451.79 197.88Q449.39 197.88 447.95 196.54Q446.51 195.19 446.51 192.84L446.51 189.24Q446.51 186.89 447.95 185.54Q449.39 184.20 451.79 184.20Q454.07 184.20 455.48 185.42Q456.88 186.65 456.95 188.76L454.79 188.76Q454.72 187.49 453.93 186.80Q453.14 186.12 451.79 186.12Q450.38 186.12 449.52 186.92Q448.67 187.73 448.67 189.22L448.67 192.84Q448.67 194.33 449.52 195.14Q450.38 195.96 451.79 195.96Q453.14 195.96 453.93 195.26Q454.72 194.57 454.79 193.32L456.95 193.32Q456.88 195.43 455.48 196.66Q454.07 197.88 451.79 197.88" fill="white" fill-opacity="0.7"/>
<path d="M466 197.88Q463.67 197.88 462.24 196.48Q460.82 195.07 460.82 192.60L460.82 189.48Q460.82 187.01 462.24 185.60Q463.67 184.20 466 184.20Q467.56 184.20 468.72 184.82Q469.89 185.45 470.54 186.58Q471.18 187.70 471.18 189.24L471.18 191.59L462.93 191.59L462.93 192.84Q462.93 194.30 463.77 195.16Q464.61 196.01 466 196.01Q467.20 196.01 467.98 195.54Q468.76 195.07 468.93 194.28L471.09 194.28Q470.87 195.94 469.48 196.91Q468.09 197.88 466 197.88M462.93 189.24L462.93 189.91L469.07 189.91L469.07 189.24Q469.07 187.68 468.27 186.83Q467.46 185.98 466 185.98Q464.54 185.98 463.73 186.83Q462.93 187.68 462.93 189.24" fill="white" fill-opacity="0.7"/>
<path d="M494.34 197.64L489.81 197.64L489.81 180.12L494.34 180.12Q496.05 180.12 497.28 180.77Q498.52 181.42 499.20 182.59Q499.89 183.77 499.89 185.38L499.89 192.36Q499.89 193.97 499.20 195.16Q498.52 196.34 497.28 196.99Q496.05 197.64 494.34 197.64M491.97 182.04L491.97 195.72L494.34 195.72Q495.93 195.72 496.83 194.83Q497.73 193.94 497.73 192.36L497.73 185.38Q497.73 183.82 496.83 182.93Q495.93 182.04 494.34 182.04" fill="white" fill-opacity="0.7"/>
<path d="M509.20 197.83Q506.82 197.83 505.42 196.44Q504.02 195.05 504.02 192.55L504.02 189.53Q504.02 187.01 505.41 185.63Q506.80 184.25 509.20 184.25Q511.60 184.25 512.99 185.63Q514.38 187.01 514.38 189.53L514.38 192.55Q514.38 195.05 512.98 196.44Q511.58 197.83 509.20 197.83M509.20 195.91Q510.62 195.91 511.42 195.12Q512.22 194.33 512.22 192.79L512.22 189.29Q512.22 187.75 511.42 186.96Q510.62 186.17 509.20 186.17Q507.81 186.17 506.99 186.96Q506.18 187.75 506.18 189.29L506.18 192.79Q506.18 194.33 506.99 195.12Q507.81 195.91 509.20 195.91" fill="white" fill-opacity="0.7"/>
<path d="M523.79 197.88Q521.39 197.88 519.95 196.54Q518.51 195.19 518.51 192.84L518.51 189.24Q518.51 186.89 519.95 185.54Q521.39 184.20 523.79 184.20Q526.07 184.20 527.48 185.42Q528.88 186.65 528.95 188.76L526.79 188.76Q526.72 187.49 525.93 186.80Q525.14 186.12 523.79 186.12Q522.38 186.12 521.52 186.92Q520.67 187.73 520.67 189.22L520.67 192.84Q520.67 194.33 521.52 195.14Q522.38 195.96 523.79 195.96Q525.14 195.96 525.93 195.26Q526.72 194.57 526.79 193.32L528.95 193.32Q528.88 195.43 527.48 196.66Q526.07 197.88 523.79 197.88" fill="white" fill-opacity="0.7"/>
<path d="M538.53 197.83L537.47 197.83Q535.26 197.83 534.05 196.84Q532.84 195.84 532.84 194.02L535 194.02Q535 194.93 535.65 195.44Q536.30 195.96 537.47 195.96L538.53 195.96Q539.73 195.96 540.39 195.43Q541.05 194.90 541.05 193.94Q541.05 192.24 539.49 192.02L535.84 191.50Q534.50 191.30 533.75 190.38Q533.01 189.46 533.01 187.94Q533.01 186.22 534.20 185.23Q535.38 184.25 537.47 184.25L538.53 184.25Q540.45 184.25 541.66 185.20Q542.87 186.14 542.97 187.68L540.78 187.68Q540.74 186.98 540.12 186.53Q539.51 186.07 538.53 186.07L537.47 186.07Q536.37 186.07 535.74 186.58Q535.12 187.08 535.12 187.94Q535.12 189.34 536.39 189.53L539.80 190.01Q543.16 190.49 543.16 193.94Q543.16 195.79 541.95 196.81Q540.74 197.83 538.53 197.83" fill="white" fill-opacity="0.7"/>
<path d="M563.97 201.96L561.81 201.96L561.81 184.44L563.97 184.44L563.97 186.96L563.99 186.96Q564.16 185.66 565.12 184.93Q566.08 184.20 567.57 184.20Q569.56 184.20 570.74 185.51Q571.91 186.82 571.91 189.10L571.91 192.96Q571.91 195.24 570.74 196.56Q569.56 197.88 567.57 197.88Q566.08 197.88 565.12 197.14Q564.16 196.39 563.99 195.12L563.92 195.12L563.97 198.12L563.97 201.96M566.85 196.01Q568.22 196.01 568.98 195.29Q569.75 194.57 569.75 192.96L569.75 189.12Q569.75 187.49 568.98 186.78Q568.22 186.07 566.85 186.07Q565.53 186.07 564.75 186.91Q563.97 187.75 563.97 189.24L563.97 192.84Q563.97 194.33 564.75 195.17Q565.53 196.01 566.85 196.01" fill="white" fill-opacity="0.7"/>
<path d="M580.05 197.88Q578.01 197.88 576.81 196.74Q575.61 195.60 575.61 193.75Q575.61 192.53 576.16 191.62Q576.71 190.70 577.70 190.19Q578.68 189.67 579.95 189.67L584.03 189.67L584.03 188.64Q584.03 186.07 581.22 186.07Q579.98 186.07 579.21 186.53Q578.44 186.98 578.39 187.80L576.23 187.80Q576.35 186.24 577.68 185.22Q579.02 184.20 581.22 184.20Q583.62 184.20 584.91 185.35Q586.19 186.50 586.19 188.57L586.19 197.64L584.06 197.64L584.06 195.24L584.01 195.24Q583.82 196.46 582.78 197.17Q581.75 197.88 580.05 197.88M580.58 196.06Q582.16 196.06 583.10 195.29Q584.03 194.52 584.03 193.20L584.03 191.35L580.19 191.35Q579.14 191.35 578.48 191.99Q577.82 192.62 577.82 193.68Q577.82 194.78 578.55 195.42Q579.28 196.06 580.58 196.06" fill="white" fill-opacity="0.7"/>
<path d="M595.96 201.96L592.26 201.96L592.26 199.99L595.98 199.99Q597.11 199.99 597.76 199.36Q598.41 198.72 598.41 197.64L598.41 196.44L598.46 194.28L598.38 194.28Q598.19 195.46 597.26 196.09Q596.32 196.73 594.90 196.73Q592.86 196.73 591.69 195.43Q590.51 194.14 590.51 191.88L590.51 189.10Q590.51 186.84 591.69 185.52Q592.86 184.20 594.90 184.20Q596.32 184.20 597.26 184.87Q598.19 185.54 598.38 186.72L598.43 186.72L598.43 184.44L600.57 184.44L600.57 197.64Q600.57 199.63 599.33 200.80Q598.10 201.96 595.96 201.96M595.55 194.93Q596.90 194.93 597.66 194.09Q598.43 193.25 598.43 191.76L598.43 189.24Q598.43 187.75 597.66 186.91Q596.90 186.07 595.55 186.07Q594.18 186.07 593.43 186.86Q592.67 187.66 592.67 189L592.67 192Q592.67 193.34 593.43 194.14Q594.18 194.93 595.55 194.93" fill="white" fill-opacity="0.7"/>
<path d="M610 197.88Q607.67 197.88 606.24 196.48Q604.82 195.07 604.82 192.60L604.82 189.48Q604.82 187.01 606.24 185.60Q607.67 184.20 610 184.20Q611.56 184.20 612.72 184.82Q613.89 185.45 614.54 186.58Q615.18 187.70 615.18 189.24L615.18 191.59L606.93 191.59L606.93 192.84Q606.93 194.30 607.77 195.16Q608.61 196.01 610 196.01Q611.20 196.01 611.98 195.54Q612.76 195.07 612.93 194.28L615.09 194.28Q614.87 195.94 613.48 196.91Q612.09 197.88 610 197.88M606.93 189.24L606.93 189.91L613.07 189.91L613.07 189.24Q613.07 187.68 612.27 186.83Q611.46 185.98 610 185.98Q608.54 185.98 607.73 186.83Q606.93 187.68 606.93 189.24" fill="white" fill-opacity="0.7"/>
<path d="M638.92 197.64L636.76 197.64L636.76 188.21L632.92 188.21L632.92 186.24L636.76 186.24L636.76 183.48Q636.76 181.92 637.74 181.02Q638.73 180.12 640.46 180.12L644.32 180.12L644.32 182.09L640.46 182.09Q638.92 182.09 638.92 183.48L638.92 186.24L644.32 186.24L644.32 188.21L638.92 188.21" fill="white" fill-opacity="0.7"/>
<path d="M653.20 197.83Q650.82 197.83 649.42 196.44Q648.02 195.05 648.02 192.55L648.02 189.53Q648.02 187.01 649.41 185.63Q650.80 184.25 653.20 184.25Q655.60 184.25 656.99 185.63Q658.38 187.01 658.38 189.53L658.38 192.55Q658.38 195.05 656.98 196.44Q655.58 197.83 653.20 197.83M653.20 195.91Q654.62 195.91 655.42 195.12Q656.22 194.33 656.22 192.79L656.22 189.29Q656.22 187.75 655.42 186.96Q654.62 186.17 653.20 186.17Q651.81 186.17 650.99 186.96Q650.18 187.75 650.18 189.29L650.18 192.79Q650.18 194.33 650.99 195.12Q651.81 195.91 653.20 195.91" fill="white" fill-opacity="0.7"/>
<path d="M665.25 197.64L663.09 197.64L663.09 184.44L665.25 184.44L665.25 186.96L665.30 186.96Q665.46 185.69 666.38 184.94Q667.29 184.20 668.82 184.20Q670.89 184.20 672 185.44Q673.12 186.67 673.12 188.95L673.12 190.08L670.96 190.08L670.96 188.95Q670.96 186.07 668.15 186.07Q666.74 186.07 665.99 186.89Q665.25 187.70 665.25 189.24" fill="white" fill-opacity="0.7"/>
<path d="M701.56 197.64L697.72 197.64Q696.09 197.64 695.10 196.69Q694.12 195.74 694.12 194.16L694.12 186.41L690.33 186.41L690.33 184.44L694.12 184.44L694.12 180.72L696.28 180.72L696.28 184.44L701.68 184.44L701.68 186.41L696.28 186.41L696.28 194.16Q696.28 194.83 696.68 195.25Q697.07 195.67 697.72 195.67L701.56 195.67" fill="white" fill-opacity="0.7"/>
<path d="M707.97 197.64L705.81 197.64L705.81 180.12L707.97 180.12L707.97 186.96L707.99 186.96Q708.16 185.64 709.07 184.92Q709.98 184.20 711.50 184.20Q713.49 184.20 714.66 185.42Q715.84 186.65 715.84 188.76L715.84 197.64L713.68 197.64L713.68 189.12Q713.68 187.63 712.92 186.83Q712.17 186.02 710.87 186.02Q709.53 186.02 708.75 186.86Q707.97 187.70 707.97 189.24" fill="white" fill-opacity="0.7"/>
<path d="M725.20 197.88Q722.87 197.88 721.44 196.48Q720.02 195.07 720.02 192.60L720.02 189.48Q720.02 187.01 721.44 185.60Q722.87 184.20 725.20 184.20Q726.76 184.20 727.92 184.82Q729.09 185.45 729.74 186.58Q730.38 187.70 730.38 189.24L730.38 191.59L722.13 191.59L722.13 192.84Q722.13 194.30 722.97 195.16Q723.81 196.01 725.20 196.01Q726.40 196.01 727.18 195.54Q727.96 195.07 728.13 194.28L730.29 194.28Q730.07 195.94 728.68 196.91Q727.29 197.88 725.20 197.88M722.13 189.24L722.13 189.91L728.27 189.91L728.27 189.24Q728.27 187.68 727.47 186.83Q726.66 185.98 725.20 185.98Q723.74 185.98 722.93 186.83Q722.13 187.68 722.13 189.24" fill="white" fill-opacity="0.7"/>
<path d="M751.17 197.64L749.01 197.64L749.01 180.12L754.65 180.12Q757.10 180.12 758.55 181.52Q760 182.93 760 185.28Q760 187.63 758.55 189.04Q757.10 190.44 754.65 190.44L751.17 190.44L751.17 197.64M751.17 182.06L751.17 188.50L754.65 188.50Q756.06 188.50 756.92 187.62Q757.77 186.74 757.77 185.28Q757.77 183.79 756.92 182.93Q756.06 182.06 754.65 182.06" fill="white" fill-opacity="0.7"/>
<path d="M766.05 197.64L763.89 197.64L763.89 184.44L766.05 184.44L766.05 186.96L766.10 186.96Q766.26 185.69 767.18 184.94Q768.09 184.20 769.62 184.20Q771.69 184.20 772.80 185.44Q773.92 186.67 773.92 188.95L773.92 190.08L771.76 190.08L771.76 188.95Q771.76 186.07 768.95 186.07Q767.54 186.07 766.79 186.89Q766.05 187.70 766.05 189.24" fill="white" fill-opacity="0.7"/>
<path d="M782.80 197.88Q780.47 197.88 779.04 196.48Q777.62 195.07 777.62 192.60L777.62 189.48Q777.62 187.01 779.04 185.60Q780.47 184.20 782.80 184.20Q784.36 184.20 785.52 184.82Q786.69 185.45 787.34 186.58Q787.98 187.70 787.98 189.24L787.98 191.59L779.73 191.59L779.73 192.84Q779.73 194.30 780.57 195.16Q781.41 196.01 782.80 196.01Q784 196.01 784.78 195.54Q785.56 195.07 785.73 194.28L787.89 194.28Q787.67 195.94 786.28 196.91Q784.89 197.88 782.80 197.88M779.73 189.24L779.73 189.91L785.87 189.91L785.87 189.24Q785.87 187.68 785.07 186.83Q784.26 185.98 782.80 185.98Q781.34 185.98 780.53 186.83Q779.73 187.68 779.73 189.24" fill="white" fill-opacity="0.7"/>
<path d="M797.73 197.83L796.67 197.83Q794.46 197.83 793.25 196.84Q792.04 195.84 792.04 194.02L794.20 194.02Q794.20 194.93 794.85 195.44Q795.50 195.96 796.67 195.96L797.73 195.96Q798.93 195.96 799.59 195.43Q800.25 194.90 800.25 193.94Q800.25 192.24 798.69 192.02L795.04 191.50Q793.70 191.30 792.95 190.38Q792.21 189.46 792.21 187.94Q792.21 186.22 793.40 185.23Q794.58 184.25 796.67 184.25L797.73 184.25Q799.65 184.25 800.86 185.20Q802.07 186.14 802.17 187.68L799.98 187.68Q799.94 186.98 799.32 186.53Q798.71 186.07 797.73 186.07L796.67 186.07Q795.57 186.07 794.94 186.58Q794.32 187.08 794.32 187.94Q794.32 189.34 795.59 189.53L799 190.01Q802.36 190.49 802.36 193.94Q802.36 195.79 801.15 196.81Q799.94 197.83 797.73 197.83" fill="white" fill-opacity="0.7"/>
<path d="M812.13 197.83L811.07 197.83Q808.86 197.83 807.65 196.84Q806.44 195.84 806.44 194.02L808.60 194.02Q808.60 194.93 809.25 195.44Q809.90 195.96 811.07 195.96L812.13 195.96Q813.33 195.96 813.99 195.43Q814.65 194.90 814.65 193.94Q814.65 192.24 813.09 192.02L809.44 191.50Q808.10 191.30 807.35 190.38Q806.61 189.46 806.61 187.94Q806.61 186.22 807.80 185.23Q808.98 184.25 811.07 184.25L812.13 184.25Q814.05 184.25 815.26 185.20Q816.47 186.14 816.57 187.68L814.38 187.68Q814.34 186.98 813.72 186.53Q813.11 186.07 812.13 186.07L811.07 186.07Q809.97 186.07 809.34 186.58Q808.72 187.08 808.72 187.94Q808.72 189.34 809.99 189.53L813.40 190.01Q816.76 190.49 816.76 193.94Q816.76 195.79 815.55 196.81Q814.34 197.83 812.13 197.83" fill="white" fill-opacity="0.7"/>
<path d="M836.61 197.64L834.40 197.64L838.96 180.12L841.86 180.12L846.40 197.64L844.22 197.64L843.06 192.98L837.76 192.98L836.61 197.64M839.54 185.74L838.19 191.16L842.61 191.16L841.26 185.76Q840.88 184.22 840.66 183.19Q840.45 182.16 840.40 181.85Q840.35 182.16 840.14 183.19Q839.92 184.22 839.54 185.74" fill="white" fill-opacity="0.7"/>
<path d="M855.33 197.83L854.27 197.83Q852.06 197.83 850.85 196.84Q849.64 195.84 849.64 194.02L851.80 194.02Q851.80 194.93 852.45 195.44Q853.10 195.96 854.27 195.96L855.33 195.96Q856.53 195.96 857.19 195.43Q857.85 194.90 857.85 193.94Q857.85 192.24 856.29 192.02L852.64 191.50Q851.30 191.30 850.55 190.38Q849.81 189.46 849.81 187.94Q849.81 186.22 851 185.23Q852.18 184.25 854.27 184.25L855.33 184.25Q857.25 184.25 858.46 185.20Q859.67 186.14 859.77 187.68L857.58 187.68Q857.54 186.98 856.92 186.53Q856.31 186.07 855.33 186.07L854.27 186.07Q853.17 186.07 852.54 186.58Q851.92 187.08 851.92 187.94Q851.92 189.34 853.19 189.53L856.60 190.01Q859.96 190.49 859.96 193.94Q859.96 195.79 858.75 196.81Q857.54 197.83 855.33 197.83" fill="white" fill-opacity="0.7"/>
<path d="M869.73 197.83L868.67 197.83Q866.46 197.83 865.25 196.84Q864.04 195.84 864.04 194.02L866.20 194.02Q866.20 194.93 866.85 195.44Q867.50 195.96 868.67 195.96L869.73 195.96Q870.93 195.96 871.59 195.43Q872.25 194.90 872.25 193.94Q872.25 192.24 870.69 192.02L867.04 191.50Q865.70 191.30 864.95 190.38Q864.21 189.46 864.21 187.94Q864.21 186.22 865.40 185.23Q866.58 184.25 868.67 184.25L869.73 184.25Q871.65 184.25 872.86 185.20Q874.07 186.14 874.17 187.68L871.98 187.68Q871.94 186.98 871.32 186.53Q870.71 186.07 869.73 186.07L868.67 186.07Q867.57 186.07 866.94 186.58Q866.32 187.08 866.32 187.94Q866.32 189.34 867.59 189.53L871 190.01Q874.36 190.49 874.36 193.94Q874.36 195.79 873.15 196.81Q871.94 197.83 869.73 197.83" fill="white" fill-opacity="0.7"/>
<path d="M883.60 197.83Q881.22 197.83 879.82 196.44Q878.42 195.05 878.42 192.55L878.42 189.53Q878.42 187.01 879.81 185.63Q881.20 184.25 883.60 184.25Q886 184.25 887.39 185.63Q888.78 187.01 888.78 189.53L888.78 192.55Q888.78 195.05 887.38 196.44Q885.98 197.83 883.60 197.83M883.60 195.91Q885.02 195.91 885.82 195.12Q886.62 194.33 886.62 192.79L886.62 189.29Q886.62 187.75 885.82 186.96Q885.02 186.17 883.60 186.17Q882.21 186.17 881.39 186.96Q880.58 187.75 880.58 189.29L880.58 192.79Q880.58 194.33 881.39 195.12Q882.21 195.91 883.60 195.91" fill="white" fill-opacity="0.7"/>
<path d="M898.19 197.88Q895.79 197.88 894.35 196.54Q892.91 195.19 892.91 192.84L892.91 189.24Q892.91 186.89 894.35 185.54Q895.79 184.20 898.19 184.20Q900.47 184.20 901.88 185.42Q903.28 186.65 903.35 188.76L901.19 188.76Q901.12 187.49 900.33 186.80Q899.54 186.12 898.19 186.12Q896.78 186.12 895.92 186.92Q895.07 187.73 895.07 189.22L895.07 192.84Q895.07 194.33 895.92 195.14Q896.78 195.96 898.19 195.96Q899.54 195.96 900.33 195.26Q901.12 194.57 901.19 193.32L903.35 193.32Q903.28 195.43 901.88 196.66Q900.47 197.88 898.19 197.88" fill="white" fill-opacity="0.7"/>
<path d="M918.52 197.64L907.24 197.64L907.24 195.67L911.92 195.67L911.92 186.41L907.72 186.41L907.72 184.44L914.08 184.44L914.08 195.67L918.52 195.67L918.52 197.64M912.76 182.06Q911.97 182.06 911.51 181.66Q911.06 181.25 911.06 180.55Q911.06 179.83 911.51 179.41Q911.97 178.99 912.76 178.99Q913.55 178.99 914.01 179.41Q914.46 179.83 914.46 180.55Q914.46 181.25 914.01 181.66Q913.55 182.06 912.76 182.06" fill="white" fill-opacity="0.7"/>
<path d="M925.65 197.88Q923.61 197.88 922.41 196.74Q921.21 195.60 921.21 193.75Q921.21 192.53 921.76 191.62Q922.31 190.70 923.30 190.19Q924.28 189.67 925.55 189.67L929.63 189.67L929.63 188.64Q929.63 186.07 926.82 186.07Q925.58 186.07 924.81 186.53Q924.04 186.98 923.99 187.80L921.83 187.80Q921.95 186.24 923.28 185.22Q924.62 184.20 926.82 184.20Q929.22 184.20 930.51 185.35Q931.79 186.50 931.79 188.57L931.79 197.64L929.66 197.64L929.66 195.24L929.61 195.24Q929.42 196.46 928.38 197.17Q927.35 197.88 925.65 197.88M926.18 196.06Q927.76 196.06 928.70 195.29Q929.63 194.52 929.63 193.20L929.63 191.35L925.79 191.35Q924.74 191.35 924.08 191.99Q923.42 192.62 923.42 193.68Q923.42 194.78 924.15 195.42Q924.88 196.06 926.18 196.06" fill="white" fill-opacity="0.7"/>
<path d="M946.36 197.64L942.52 197.64Q940.89 197.64 939.90 196.69Q938.92 195.74 938.92 194.16L938.92 186.41L935.13 186.41L935.13 184.44L938.92 184.44L938.92 180.72L941.08 180.72L941.08 184.44L946.48 184.44L946.48 186.41L941.08 186.41L941.08 194.16Q941.08 194.83 941.48 195.25Q941.87 195.67 942.52 195.67L946.36 195.67" fill="white" fill-opacity="0.7"/>
<path d="M961.72 197.64L950.44 197.64L950.44 195.67L955.12 195.67L955.12 186.41L950.92 186.41L950.92 184.44L957.28 184.44L957.28 195.67L961.72 195.67L961.72 197.64M955.96 182.06Q955.17 182.06 954.71 181.66Q954.26 181.25 954.26 180.55Q954.26 179.83 954.71 179.41Q955.17 178.99 955.96 178.99Q956.75 178.99 957.21 179.41Q957.66 179.83 957.66 180.55Q957.66 181.25 957.21 181.66Q956.75 182.06 955.96 182.06" fill="white" fill-opacity="0.7"/>
<path d="M970 197.83Q967.62 197.83 966.22 196.44Q964.82 195.05 964.82 192.55L964.82 189.53Q964.82 187.01 966.21 185.63Q967.60 184.25 970 184.25Q972.40 184.25 973.79 185.63Q975.18 187.01 975.18 189.53L975.18 192.55Q975.18 195.05 973.78 196.44Q972.38 197.83 970 197.83M970 195.91Q971.42 195.91 972.22 195.12Q973.02 194.33 973.02 192.79L973.02 189.29Q973.02 187.75 972.22 186.96Q971.42 186.17 970 186.17Q968.61 186.17 967.79 186.96Q966.98 187.75 966.98 189.29L966.98 192.79Q966.98 194.33 967.79 195.12Q968.61 195.91 970 195.91" fill="white" fill-opacity="0.7"/>
<path d="M981.57 197.64L979.41 197.64L979.41 184.44L981.57 184.44L981.57 186.96L981.59 186.96Q981.76 185.64 982.67 184.92Q983.58 184.20 985.10 184.20Q987.09 184.20 988.26 185.42Q989.44 186.65 989.44 188.76L989.44 197.64L987.28 197.64L987.28 189.14Q987.28 187.63 986.52 186.83Q985.77 186.02 984.47 186.02Q983.13 186.02 982.35 186.86Q981.57 187.70 981.57 189.24" fill="white" fill-opacity="0.7"/>
<path d="M1014.28 197.64L1012.12 197.64L1012.12 182.09L1007.32 182.09L1007.32 180.12L1019.08 180.12L1019.08 182.09L1014.28 182.09" fill="white" fill-opacity="0.7"/>
<path d="M1029.06 197.64L1026.11 197.64L1021.60 180.12L1023.81 180.12L1026.81 192.05Q1027.12 193.30 1027.32 194.35Q1027.53 195.41 1027.62 195.96Q1027.72 195.41 1027.95 194.34Q1028.18 193.27 1028.49 192.02L1031.37 180.12L1033.60 180.12" fill="white" fill-opacity="0.7"/>
<path d="M1052.61 197.64L1050.40 197.64L1054.96 180.12L1057.86 180.12L1062.40 197.64L1060.22 197.64L1059.06 192.98L1053.76 192.98L1052.61 197.64M1055.54 185.74L1054.19 191.16L1058.61 191.16L1057.26 185.76Q1056.88 184.22 1056.66 183.19Q1056.45 182.16 1056.40 181.85Q1056.35 182.16 1056.14 183.19Q1055.92 184.22 1055.54 185.74" fill="white" fill-opacity="0.7"/>
<path d="M1067.97 197.64L1065.81 197.64L1065.81 180.12L1071.45 180.12Q1073.90 180.12 1075.35 181.52Q1076.80 182.93 1076.80 185.28Q1076.80 187.63 1075.35 189.04Q1073.90 190.44 1071.45 190.44L1067.97 190.44L1067.97 197.64M1067.97 182.06L1067.97 188.50L1071.45 188.50Q1072.86 188.50 1073.72 187.62Q1074.57 186.74 1074.57 185.28Q1074.57 183.79 1073.72 182.93Q1072.86 182.06 1071.45 182.06" fill="white" fill-opacity="0.7"/>
<path d="M1089.88 197.64L1080.52 197.64L1080.52 195.67L1084.10 195.67L1084.10 182.09L1080.52 182.09L1080.52 180.12L1089.88 180.12L1089.88 182.09L1086.30 182.09L1086.30 195.67L1089.88 195.67" fill="white" fill-opacity="0.7"/>
<path d="M1118.44 198.43L1118.44 200.52Q1115.01 199.75 1113.12 197.30Q1111.24 194.86 1111.24 191.16L1111.24 186.84Q1111.24 183.14 1113.12 180.70Q1115.01 178.25 1118.44 177.48L1118.44 179.57Q1116.90 179.93 1115.76 180.94Q1114.62 181.94 1114.01 183.44Q1113.40 184.94 1113.40 186.84L1113.40 191.16Q1113.40 193.03 1114.01 194.54Q1114.62 196.06 1115.76 197.06Q1116.90 198.07 1118.44 198.43" fill="white" fill-opacity="0.7"/>
<path d="M1129.82 197.64L1126.98 197.64L1122.50 184.44L1124.82 184.44L1127.70 193.32Q1127.97 194.11 1128.16 194.84Q1128.35 195.58 1128.45 195.98Q1128.57 195.58 1128.74 194.84Q1128.90 194.11 1129.14 193.32L1132.02 184.44L1134.30 184.44" fill="white" fill-opacity="0.7"/>
<path d="M1148.25 197.64L1137.66 197.64L1137.66 195.65L1143.50 189.41Q1144.77 188.06 1145.30 187.01Q1145.82 185.95 1145.82 184.94Q1145.82 183.50 1145 182.65Q1144.17 181.80 1142.75 181.80Q1141.29 181.80 1140.44 182.68Q1139.58 183.55 1139.58 185.04L1137.42 185.04Q1137.50 182.66 1138.94 181.27Q1140.38 179.88 1142.75 179.88Q1145.18 179.88 1146.60 181.25Q1148.03 182.62 1148.03 184.97Q1148.03 186.22 1147.35 187.61Q1146.66 189 1145.01 190.73L1140.28 195.67L1148.25 195.67" fill="white" fill-opacity="0.7"/>
<path d="M1152.76 200.52L1152.76 198.43Q1154.32 198.07 1155.45 197.06Q1156.58 196.06 1157.19 194.54Q1157.80 193.03 1157.80 191.16L1157.80 186.84Q1157.80 184.94 1157.19 183.44Q1156.58 181.94 1155.45 180.94Q1154.32 179.93 1152.76 179.57L1152.76 177.48Q1156.19 178.25 1158.08 180.70Q1159.96 183.14 1159.96 186.84L1159.96 191.16Q1159.96 194.86 1158.08 197.30Q1156.19 199.75 1152.76 200.52" fill="white" fill-opacity="0.7"/>
<path d="M79.95 136.06L70.45 136.06L70.45 65.98L93.20 65.98Q99.92 65.98 104.82 68.57Q109.71 71.16 112.40 75.82Q115.09 80.48 115.09 86.91Q115.09 93.24 112.40 97.90Q109.71 102.56 104.77 105.15Q99.82 107.74 93.20 107.74L79.95 107.74L79.95 136.06M79.95 74.43L79.95 99.29L93.20 99.29Q98.77 99.29 102.03 95.88Q105.30 92.48 105.30 86.91Q105.30 81.24 102.03 77.84Q98.77 74.43 93.20 74.43L79.95 74.43M137.55 136.06L128.14 136.06L128.14 65.98L149.84 65.98Q156.27 65.98 161.07 68.52Q165.87 71.07 168.56 75.63Q171.25 80.19 171.25 86.33Q171.25 93.44 167.65 98.52Q164.05 103.61 158.10 105.72L172.21 136.06L161.74 136.06L148.40 106.78L137.55 106.78L137.55 136.06M137.55 74.43L137.55 98.33L149.84 98.33Q155.22 98.33 158.34 95.07Q161.46 91.80 161.46 86.43Q161.46 80.96 158.29 77.69Q155.12 74.43 149.84 74.43L137.55 74.43M227.31 136.06L186.51 136.06L186.51 65.98L227.31 65.98L227.31 74.52L195.92 74.52L195.92 95.36L223.95 95.36L223.95 103.61L195.92 103.61L195.92 127.52L227.31 127.52L227.31 136.06M263.98 137.02Q253.62 137.02 247.47 131.60Q241.33 126.17 241.33 116.67L250.83 116.67Q250.83 122.24 254.38 125.40Q257.94 128.57 263.98 128.57Q269.74 128.57 273.15 125.36Q276.56 122.14 276.56 116.76Q276.56 112.73 274.35 109.71Q272.14 106.68 268.11 105.63L257.74 102.84Q250.93 100.92 246.94 95.88Q242.96 90.84 242.96 83.93Q242.96 78.27 245.50 74Q248.05 69.72 252.66 67.37Q257.26 65.02 263.31 65.02Q269.46 65.02 274.11 67.37Q278.77 69.72 281.36 73.95Q283.95 78.17 283.95 83.74L274.54 83.74Q274.54 79.13 271.42 76.25Q268.30 73.37 263.31 73.37Q258.32 73.37 255.30 76.25Q252.27 79.13 252.27 83.74Q252.27 87.48 254.29 90.03Q256.30 92.57 259.95 93.63L270.61 96.51Q277.81 98.43 281.84 103.85Q285.87 109.28 285.87 116.76Q285.87 122.91 283.18 127.47Q280.50 132.03 275.55 134.52Q270.61 137.02 263.98 137.02M321.58 137.02Q311.22 137.02 305.07 131.60Q298.93 126.17 298.93 116.67L308.43 116.67Q308.43 122.24 311.98 125.40Q315.54 128.57 321.58 128.57Q327.34 128.57 330.75 125.36Q334.16 122.14 334.16 116.76Q334.16 112.73 331.95 109.71Q329.74 106.68 325.71 105.63L315.34 102.84Q308.53 100.92 304.54 95.88Q300.56 90.84 300.56 83.93Q300.56 78.27 303.10 74Q305.65 69.72 310.26 67.37Q314.86 65.02 320.91 65.02Q327.06 65.02 331.71 67.37Q336.37 69.72 338.96 73.95Q341.55 78.17 341.55 83.74L332.14 83.74Q332.14 79.13 329.02 76.25Q325.90 73.37 320.91 73.37Q315.92 73.37 312.90 76.25Q309.87 79.13 309.87 83.74Q309.87 87.48 311.89 90.03Q313.90 92.57 317.55 93.63L328.21 96.51Q335.41 98.43 339.44 103.85Q343.47 109.28 343.47 116.76Q343.47 122.91 340.78 127.47Q338.10 132.03 333.15 134.52Q328.21 137.02 321.58 137.02M364.11 136.06L354.42 136.06L372.56 65.98L385.14 65.98L403.18 136.06L393.49 136.06L389.07 117.82L368.53 117.82L364.11 136.06M375.54 88.92L370.45 109.95L387.15 109.95L382.16 89.02Q380.72 83.26 379.86 79.23Q378.99 75.20 378.80 73.76Q378.61 75.20 377.74 79.23Q376.88 83.26 375.54 88.92M436.78 137.02Q426.42 137.02 420.27 131.60Q414.13 126.17 414.13 116.67L423.63 116.67Q423.63 122.24 427.18 125.40Q430.74 128.57 436.78 128.57Q442.54 128.57 445.95 125.36Q449.36 122.14 449.36 116.76Q449.36 112.73 447.15 109.71Q444.94 106.68 440.91 105.63L430.54 102.84Q423.73 100.92 419.74 95.88Q415.76 90.84 415.76 83.93Q415.76 78.27 418.30 74Q420.85 69.72 425.46 67.37Q430.06 65.02 436.11 65.02Q442.26 65.02 446.91 67.37Q451.57 69.72 454.16 73.95Q456.75 78.17 456.75 83.74L447.34 83.74Q447.34 79.13 444.22 76.25Q441.10 73.37 436.11 73.37Q431.12 73.37 428.10 76.25Q425.07 79.13 425.07 83.74Q425.07 87.48 427.09 90.03Q429.10 92.57 432.75 93.63L443.41 96.51Q450.61 98.43 454.64 103.85Q458.67 109.28 458.67 116.76Q458.67 122.91 455.98 127.47Q453.30 132.03 448.35 134.52Q443.41 137.02 436.78 137.02M494.38 137.02Q484.02 137.02 477.87 131.60Q471.73 126.17 471.73 116.67L481.23 116.67Q481.23 122.24 484.78 125.40Q488.34 128.57 494.38 128.57Q500.14 128.57 503.55 125.36Q506.96 122.14 506.96 116.76Q506.96 112.73 504.75 109.71Q502.54 106.68 498.51 105.63L488.14 102.84Q481.33 100.92 477.34 95.88Q473.36 90.84 473.36 83.93Q473.36 78.27 475.90 74Q478.45 69.72 483.06 67.37Q487.66 65.02 493.71 65.02Q499.86 65.02 504.51 67.37Q509.17 69.72 511.76 73.95Q514.35 78.17 514.35 83.74L504.94 83.74Q504.94 79.13 501.82 76.25Q498.70 73.37 493.71 73.37Q488.72 73.37 485.70 76.25Q482.67 79.13 482.67 83.74Q482.67 87.48 484.69 90.03Q486.70 92.57 490.35 93.63L501.01 96.51Q508.21 98.43 512.24 103.85Q516.27 109.28 516.27 116.76Q516.27 122.91 513.58 127.47Q510.90 132.03 505.95 134.52Q501.01 137.02 494.38 137.02M551.60 137.02QNaN 137.02 536.43 131.45Q530.86 125.88 530.86 115.71L530.86 86.24Q530.86 76.16 536.43 70.59QNaN 65.02 551.60 65.02Q561.20 65.02 566.77 70.54Q572.34 76.06 572.34 86.24L572.34 115.71Q572.34 125.88 566.77 131.45Q561.20 137.02 551.60 137.02M551.60 128.57Q556.98 128.57 559.90 125.50Q562.83 122.43 562.83 116.67L562.83 85.28Q562.83 79.61 559.95 76.54Q557.07 73.47 551.60 73.47Q546.13 73.47 543.25 76.54Q540.37 79.61 540.37 85.28L540.37 116.67Q540.37 122.43 543.30 125.50Q546.22 128.57 551.60 128.57M609.97 137.02Q600.27 137.02 594.56 131.60Q588.85 126.17 588.85 116.67L588.85 85.28Q588.85 75.87 594.56 70.44Q600.27 65.02 609.97 65.02Q619.57 65.02 625.28 70.49Q630.99 75.96 630.99 85.28L621.49 85.28Q621.49 79.61 618.42 76.54Q615.34 73.47 609.97 73.47Q604.50 73.47 601.42 76.54Q598.35 79.61 598.35 85.28L598.35 116.67Q598.35 122.43 601.42 125.50Q604.50 128.57 609.97 128.57Q615.34 128.57 618.42 125.50Q621.49 122.43 621.49 116.67L630.99 116.67Q630.99 126.08 625.28 131.55Q619.57 137.02 609.97 137.02M685.90 136.06L647.70 136.06L647.70 127.42LNaN 127.42LNaN 74.62L647.70 74.62L647.70 65.98L685.90 65.98L685.90 74.62L671.60 74.62L671.60 127.42L685.90 127.42L685.90 136.06M709.71 136.06L700.02 136.06L718.16 65.98L730.74 65.98L748.78 136.06L739.09 136.06L734.67 117.82L714.13 117.82L709.71 136.06M721.14 88.92L716.05 109.95L732.75 109.95L727.76 89.02Q726.32 83.26 725.46 79.23Q724.59 75.20 724.40 73.76Q724.21 75.20 723.34 79.23Q722.48 83.26 721.14 88.92M786.80 136.06L777.30 136.06L777.30 74.62L758.29 74.62L758.29 65.98L805.71 65.98L805.71 74.62L786.80 74.62L786.80 136.06M858.70 136.06L820.50 136.06L820.50 127.42L834.80 127.42L834.80 74.62L820.50 74.62L820.50 65.98L858.70 65.98L858.70 74.62L844.40 74.62L844.40 127.42L858.70 127.42L858.70 136.06M897.20 137.02Q887.60 137.02 882.03 131.45Q876.46 125.88 876.46 115.71L876.46 86.24Q876.46 76.16 882.03 70.59Q887.60 65.02 897.20 65.02Q906.80 65.02 912.37 70.54Q917.94 76.06 917.94 86.24L917.94 115.71Q917.94 125.88 912.37 131.45Q906.80 137.02 897.20 137.02M897.20 128.57Q902.58 128.57 905.50 125.50Q908.43 122.43 908.43 116.67L908.43 85.28Q908.43 79.61 905.55 76.54Q902.67 73.47 897.20 73.47Q891.73 73.47 888.85 76.54Q885.97 79.61 885.97 85.28L885.97 116.67Q885.97 122.43 888.90 125.50Q891.82 128.57 897.20 128.57M943.18 136.06L934.26 136.06L934.26 65.98L946.54 65.98L967.47 125.12Q967.18 122.62 966.94 118.92Q966.70 115.23 966.56 111.24Q966.42 107.26 966.42 103.71L966.42 65.98L975.44 65.98L975.44 136.06L963.06 136.06L942.32 76.92Q942.51 79.42 942.70 83.02Q942.90 86.62 943.04 90.56Q943.18 94.49 943.18 97.95" fill="url(#paint2_linear_0_1)"/>
<g id="Group 1">
<rect id="Rectangle 1" x="26" y="168" width="12" height="184" rx="5" fill="url(#paint3_linear_0_1)" fill-opacity="0.9"/>
</g>
<g id="Group 1_2">
<rect id="Rectangle 2" x="26" y="38" width="12" height="119" rx="5" fill="url(#paint4_linear_0_1)" fill-opacity="0.9"/>
</g>
<ellipse id="Ellipse 1" cx="148.5" cy="573" rx="215.5" ry="214" fill="url(#paint5_linear_0_1)" fill-opacity="0.4"/>
<rect id="Rectangle 3" x="1229" y="48" width="300" height="300" rx="25" fill="#FFFBFB" fill-opacity="0.9"/>
<g id="placeholder-logo"><g transform="translate(1229,48) translate(0.0,60.0) scale(1.2000)"><g fill="#666666">
  <path d="m88.05,27.65c-3.15,4 -3.2,51.2 -0.05,54.35c2.75,2.75 71.7,3.15 74.45,0.45c2.85,-2.9 2.3,-53.85 -0.65,-55.9c-1.95,-1.35 -7.15,-1.55 -36.95,-1.55l-34.7,0l-2.1,2.65zm69.45,3.35c0.65,0 1,8.6 1,23.75l0,23.75l-33,0l-33,0l-0.25,-23c-0.15,-12.6 -0.1,-23.45 0.15,-24.1c0.35,-0.85 8.9,-1.05 32.25,-0.75c17.55,0.2 32.3,0.35 32.85,0.35z"/>
  <path d="m99.15,37.3c-6.85,7.35 4.25,17.35 11.4,10.25c1.35,-1.35 2.45,-3.65 2.45,-5.05c0,-6.45 -9.35,-9.95 -13.85,-5.2z"/>
  <path d="m135,42.5c-0.7,0.85 -5.25,5.15 -10.1,9.6l-8.85,8.1l-3.2,-3.2l-3.15,-3.15l-6.35,6.3c-5.55,5.5 -6.35,6.75 -6.35,10.05l0,3.8l28.5,0l28.5,0l0,-8.6l0,-8.55l-8.15,-7.7c-9.35,-8.85 -9.15,-8.7 -10.85,-6.65zm7.25,15.2c0.95,0.9 1.75,2.9 1.75,4.45c6.35,-5.05 4.75,-7.15 4.9,-11.55c0.95,0 0,0 0,0l-6.65,7.1z"/>
  <path d="m53.65,110.75c0.1,4.8 0.45,8.65 0.75,8.5c0.35,-0.15 1.3,-0.25 2.1,-0.25c1.1,0 1.5,-1.2 1.5,-4.75l0,-4.75l3.25,5c4.9,7.5 6.2,6.75 6.55,-3.75c0.25,-8.15 0.15,-8.75 -1.7,-8.75c-1.65,0 -2.05,0.8 -2.3,4.75l-0.3,4.75l-2.8,-4.75c-4.85,-8.25 -7.25,-6.9 -7.05,4z"/>
  <path d="m91,108.9c0,9.65 0.3,10.1 6.1,10.1c5.8,0 7.15,-2.65 1.65,-3.2l-3.25,-0.3l-0.3,-6.75c-0.25,-5.95 -0.55,-6.75 -2.25,-6.75c-1.75,0 -1.95,0.7 -1.95,6.9z"/>
  <path d="m151,102.45c0,0.25 1,2.15 2.25,4.2c1.2,2.1 2.45,5.8 2.75,8.25c0.65,5.9 4,6.95 4,1.25c0.05,-2.1 1.25,-5.85 2.95,-8.9l2.9,-5.25l-2.5,0c-1.8,0 -2.8,0.85 -3.75,3.1l-1.3,3.05l-1.25,-3.05c-1.1,-2.6 -6.05,-4.8 -6.05,-2.65z"/>
  <path d="m191,107.45c0,9.05 3.4,8.85 4.25,-0.2c0.45,-5 0.35,-5.25 -1.9,-5.25c-2.2,0 -2.35,0.4 -2.35,5.45z"/>
  <path d="m180.8,104.75c-1.3,5.35 0.65,13.6 3.45,14.35c2.3,0.6 2.75,0.4 2.75,-1.2c0,-1.05 -0.45,-1.9 -1,-1.9c-0.55,0 -1,-1.6 -1,-3.5c0,-1.95 0.45,-3.5 1,-3.5c0.55,0 1,-0.7 1,-1.5c0,-0.85 -0.45,-1.5 -1,-1.5c-0.55,0 -1,-0.7 -1,-1.5c0,-2.1 -3.65,-1.9 -4.2,0.25z"/>
  <path d="m71.55,106.55c-2.2,2.25 -2.05,9.7 0.3,11.8c4.5,4.1 10.15,0.75 10.15,-6.1c0,-4.85 -2,-7.25 -6,-7.25c-1.55,0 -3.55,0.7 -4.45,1.55zm6.25,5.8c0.25,3.05 0,3.65 -1.6,3.65c-2.3,0 -3.25,-2.65 -2.05,-5.85c1.25,-3.35 3.3,-2.1 3.65,2.2z"/>
  <path d="m105.75,106.1c-2.5,1.45 -2.45,9.95 0.1,12.25c4.3,3.9 10.15,0.35 10.15,-6.2c0,-6 -5.15,-9.05 -10.25,-6.05zm6.05,6.25c0.25,3.05 0,3.65 -1.6,3.65c-2.3,0 -3.25,-2.65 -2.05,-5.85c1.25,-3.35 3.3,-2.1 3.65,2.2z"/>
  <path d="m119.2,106.2c-3.8,3.8 -0.4,12.55 4.4,11.35c1.9,-0.45 2.45,-0.3 2.15,0.65c-0.25,0.7 -1.55,1.2 -2.85,1.1c-4.05,-0.3 -5.35,0.45 -3.85,2.25c0.85,1.05 2.6,1.45 5.35,1.25l4.1,-0.3l0.3,-8.75l0.3,-8.75l-4.35,0c-2.4,0 -4.9,0.55 -5.55,1.2zm6.6,4.45c0.4,2.85 -2.15,4.85 -3.75,2.95c-0.9,-1.1 -0.9,-2 -0.05,-3.6c1.35,-2.5 3.4,-2.15 3.8,0.65z"/>
  <path d="m133.55,106.55c-2.2,2.25 -2.05,9.7 0.3,11.8c4.5,4.1 10.15,0.75 10.15,-6.1c0,-4.85 -2,-7.25 -6,-7.25c-1.55,0 -3.55,0.7 -4.45,1.55zm6.25,5.8c0.25,3.05 0,3.65 -1.6,3.65c-2.3,0 -3.25,-2.65 -2.05,-5.85c1.25,-3.35 3.3,-2.1 3.65,2.2z"/>
  <path d="m167.65,106.85c-3.9,4.3 -0.75,13.15 4.7,13.15c2.4,0 5.65,-2.75 5.65,-4.85c0,-1.4 -2.65,-1.55 -3.5,-0.15c-0.95,1.55 -4.5,1.15 -4.5,-0.5c0,-1.1 1.1,-1.5 4,-1.5c3.15,0 4,-0.35 4,-1.8c0,-5.3 -6.85,-8.25 -10.35,-4.35z"/>
  <path d="m191,117.5c0,2.15 0.4,2.6 2.25,2.3c1.5,-0.2 2.25,-1 2.25,-2.3c0,-1.3 -0.75,-2.1 -2.25,-2.3c-1.85,-0.3 -2.25,0.15 -2.25,2.3z"/>
 </g></g></g>
</g>
<defs>
<linearGradient id="paint0_linear_0_1" x1="0" y1="198" x2="1584" y2="198" gradientUnits="userSpaceOnUse">
<stop stop-color="#3D052C"/>
<stop offset="1"/>
</linearGradient>
<linearGradient id="paint1_linear_0_1" x1="323" y1="-224" x2="323" y2="352" gradientUnits="userSpaceOnUse">
<stop stop-color="#28F6F2" stop-opacity="0.4"/>
<stop offset="1" stop-color="#17908E" stop-opacity="0.7"/>
</linearGradient>
<linearGradient id="paint2_linear_0_1" x1="148.5" y1="38" x2="148.5" y2="140" gradientUnits="userSpaceOnUse">
<stop stop-color="white"/>
<stop offset="1" stop-color="#999999"/>
</linearGradient>
<linearGradient id="paint3_linear_0_1" x1="38" y1="260" x2="26" y2="260" gradientUnits="userSpaceOnUse">
<stop stop-color="#D9D9D9"/>
<stop offset="1" stop-color="#737373"/>
</linearGradient>
<linearGradient id="paint4_linear_0_1" x1="38" y1="97.5" x2="26" y2="97.5" gradientUnits="userSpaceOnUse">
<stop stop-color="#D9D9D9"/>
<stop offset="1" stop-color="#737373"/>
</linearGradient>
<linearGradient id="paint5_linear_0_1" x1="27.5" y1="434.5" x2="148.5" y2="787" gradientUnits="userSpaceOnUse">
<stop stop-color="#2E21BC"/>
<stop offset="1" stop-color="#150F56"/>
</linearGradient>
<clipPath id="clip0_0_1">
<rect width="1584" height="396" fill="white"/>
</clipPath>
</defs>
</svg>
